<svg xmlns="http://www.w3.org/2000/svg" viewBox="0 0 459.21 188.87" role="img"><title>ABUS - Logo</title><path d="M70.87 141.73h317.48a70.87 70.87 0 0 0 0-141.73H70.87a70.87 70.87 0 1 0 0 141.73" style="fill:#d40828"/><path fill="#fff" d="M11.91 70.87a59 59 0 0 1 59-59h317.44a59 59 0 0 1 0 117.92H70.87a59 59 0 0 1-59-59m59 49.32h317.48a49.33 49.33 0 0 0 0-98.65H70.87a49.33 49.33 0 1 0 0 98.65"/><path fill="#fff" d="M349.65 64.65V49.77a1.56 1.56 0 0 1 1.56-1.56H362a1.56 1.56 0 0 1 1.56 1.56v3.54h27.64V42a6.28 6.28 0 0 0-6.28-6.28H328.3A6.28 6.28 0 0 0 322 42v35.12h41.5V92a1.56 1.56 0 0 1-1.5 1.55h-10.8a1.56 1.56 0 0 1-1.56-1.55v-3.55H322v11.29a6.28 6.28 0 0 0 6.3 6.26h56.6a6.28 6.28 0 0 0 6.28-6.28V64.65ZM282.62 93.55h-10.78a1.56 1.56 0 0 1-1.56-1.55V35.73h-32.74v12.48h5.11v51.52a6.29 6.29 0 0 0 6.28 6.29h56.6a6.29 6.29 0 0 0 6.28-6.29V48.21h5.1V35.73h-32.74V92a1.56 1.56 0 0 1-1.55 1.56M232.44 77.16v22.58a6.28 6.28 0 0 1-6.28 6.28h-68V93.55h5.11V48.21h-5.11V35.73h68a6.28 6.28 0 0 1 6.28 6.27v22.93a6.28 6.28 0 0 1-6.27 5.93 6.29 6.29 0 0 1 6.28 6.29m-29.2-12.5a1.55 1.55 0 0 0 1.55-1.56V49.77a1.55 1.55 0 0 0-1.55-1.56h-12.34v16.44Zm-12.34 28.9h12.34A1.55 1.55 0 0 0 204.8 92V78.68a1.55 1.55 0 0 0-1.55-1.56h-12.34ZM85.53 106h-22V93.55h5.1l19-45.34h-5.17V35.73h41.79L148 93.55h5.1V106h-28.6l-6.74-16.43H92.4Zm12.09-28.9h15L105.21 59Z"/><path d="M77.18 175.87a8.47 8.47 0 0 1-.59 3.42 4.8 4.8 0 0 1-1.57 2 5.94 5.94 0 0 1-2.26.95 13.46 13.46 0 0 1-2.65.25 12.75 12.75 0 0 1-2.26-.2c-.73-.13-1.45-.3-2.16-.5v-2.75c.69.2 1.44.39 2.24.55a10.4 10.4 0 0 0 2.11.25 8.1 8.1 0 0 0 1.59-.15 3.12 3.12 0 0 0 1.31-.57 2.83 2.83 0 0 0 .89-1.15 4.62 4.62 0 0 0 .33-1.88 4.16 4.16 0 0 0-.2-1.37 3.54 3.54 0 0 0-.57-1.09 4.87 4.87 0 0 0-.87-.89c-.33-.27-.69-.53-1.07-.8L69 170.31c-.47-.34-.92-.69-1.36-1.07a7.36 7.36 0 0 1-1.11-1.24 5.73 5.73 0 0 1-.79-1.56 5.9 5.9 0 0 1-.29-1.89 6.22 6.22 0 0 1 .64-2.95 5.46 5.46 0 0 1 1.61-1.87 6.22 6.22 0 0 1 2.18-1 9.75 9.75 0 0 1 2.37-.3 11.3 11.3 0 0 1 2.15.2 10.47 10.47 0 0 1 1.87.57v2.65a16.48 16.48 0 0 0-2.06-.6 8.53 8.53 0 0 0-2-.24 4.85 4.85 0 0 0-2.79.72 2.87 2.87 0 0 0-1.06 2.56 3 3 0 0 0 .79 2.15 11.88 11.88 0 0 0 1.93 1.56l1.92 1.3q.8.57 1.56 1.17a8.34 8.34 0 0 1 1.34 1.38 6.89 6.89 0 0 1 1 1.76 6.34 6.34 0 0 1 .37 2.26m16.76-1.64v-1.78a13.44 13.44 0 0 0-.56-4.29 6.64 6.64 0 0 0-1.48-2.54 4.5 4.5 0 0 0-2-1.22 8.15 8.15 0 0 0-2.28-.32 8.29 8.29 0 0 0-2.48.38 4.82 4.82 0 0 0-2.23 1.43 7.55 7.55 0 0 0-1.51 2.81 15.31 15.31 0 0 0-.57 4.59 14.69 14.69 0 0 0 .69 5 6.68 6.68 0 0 0 1.77 2.79 5.1 5.1 0 0 0 2.43 1.17 16 16 0 0 0 2.65.23 11.77 11.77 0 0 0 2.19-.22 17 17 0 0 0 2.4-.62V179c-.87.25-1.71.46-2.52.62a10.13 10.13 0 0 1-2.07.25 12.25 12.25 0 0 1-1.44-.08 2.77 2.77 0 0 1-1.46-.62 4 4 0 0 1-1.16-1.67 9.29 9.29 0 0 1-.5-3.25Zm-10-2.08a13.65 13.65 0 0 1 .32-2.9 5 5 0 0 1 .76-1.77 2.33 2.33 0 0 1 1.14-.89 4.28 4.28 0 0 1 1.47-.24 4 4 0 0 1 1.29.21 2.17 2.17 0 0 1 1.09.82 4.77 4.77 0 0 1 .74 1.75 14.4 14.4 0 0 1 .26 3Zm25.09 7a16.2 16.2 0 0 1-1.88.5 8.91 8.91 0 0 1-1.71.2 6.63 6.63 0 0 1-1.57-.2 2.84 2.84 0 0 1-1.44-.89 5 5 0 0 1-1-2 11.47 11.47 0 0 1-.4-3.38 12.48 12.48 0 0 1 .43-3.67 5 5 0 0 1 1.11-2 3 3 0 0 1 1.52-.85 8 8 0 0 1 1.66-.18 8.4 8.4 0 0 1 1.66.18 12.94 12.94 0 0 1 1.66.45v-2.58a16.36 16.36 0 0 0-1.66-.47 8.65 8.65 0 0 0-1.76-.16 12.26 12.26 0 0 0-2.31.26 5.85 5.85 0 0 0-2.5 1.23 7.29 7.29 0 0 0-2 2.81 12.57 12.57 0 0 0-.82 5 13 13 0 0 0 .77 5 7.05 7.05 0 0 0 1.91 2.73 5.59 5.59 0 0 0 2.43 1.17 12.24 12.24 0 0 0 2.36.25 11 11 0 0 0 3.59-.67Zm16.87 3v-17.74h-3v13.5a11.77 11.77 0 0 1-2.36 1.38 5.76 5.76 0 0 1-2.16.5 2.23 2.23 0 0 1-2-.77 4.41 4.41 0 0 1-.51-2.38v-12.23h-3v12.9a7.54 7.54 0 0 0 .35 2.46 3.87 3.87 0 0 0 1 1.59 3.83 3.83 0 0 0 1.55.87 6.68 6.68 0 0 0 2 .27 5.22 5.22 0 0 0 1.67-.27 8.18 8.18 0 0 0 1.51-.65 7.39 7.39 0 0 0 1.25-.85c.37-.32.69-.61 1-.88l.37 2.32Zm13.63-17.89-.77-.14a4.85 4.85 0 0 0-.71-.06 3.57 3.57 0 0 0-2.39.85 4.59 4.59 0 0 0-.79.86 6.32 6.32 0 0 0-.57 1l-.43-2.35h-2.31v17.76h3v-13.55a4.33 4.33 0 0 1 1.19-1 3.19 3.19 0 0 1 1.59-.41 7 7 0 0 1 1.12.08 7.13 7.13 0 0 1 1.06.25Zm7.23-4.56a2 2 0 0 0-.57-1.42 2 2 0 0 0-2.81 0 2.05 2.05 0 0 0 0 2.84 2 2 0 0 0 2.81 0 2 2 0 0 0 .57-1.42m-3.48 22.45h3v-17.74h-3Zm17.48-2.82c-.58.18-1.13.33-1.66.44a6.79 6.79 0 0 1-1.36.17 2.06 2.06 0 0 1-1.27-.32c-.27-.21-.4-.71-.4-1.49v-11.41h3.68l.34-2.31h-4v-5.36l-2.88 1.34-.14 4h-3v2.31h3v11.33a7.29 7.29 0 0 0 .27 2.16 3.28 3.28 0 0 0 .79 1.37 2.69 2.69 0 0 0 1.26.72 6.67 6.67 0 0 0 1.7.2 10.89 10.89 0 0 0 2-.18 13.68 13.68 0 0 0 1.68-.42Zm13.36-14.94-3.45 14.24-4.42-14.24h-3.62l6.63 17.72-.2.91a10.29 10.29 0 0 1-.52 1.66 4.29 4.29 0 0 1-.6 1 1.76 1.76 0 0 1-.69.5 2.22 2.22 0 0 1-.77.13 7.34 7.34 0 0 1-.87-.06c-.34 0-.66-.1-1-.17s-.76-.15-1.14-.24v2.48c.29.09.61.18 1 .27s.62.12 1 .17a10.36 10.36 0 0 0 1.12.07 6.92 6.92 0 0 0 1.42-.15 3.87 3.87 0 0 0 1.41-.64 4.77 4.77 0 0 0 1.27-1.41 9.52 9.52 0 0 0 1.06-2.49l5.8-19.77Zm28-5.69h-14.48v2.84h5.7v20.61h3v-20.59h5.36Zm12.93 15.51v-1.78a13.41 13.41 0 0 0-.57-4.29 6.51 6.51 0 0 0-1.48-2.54 4.5 4.5 0 0 0-2-1.22 8.15 8.15 0 0 0-2.28-.32 8.34 8.34 0 0 0-2.48.38 4.82 4.82 0 0 0-2.14 1.43 7.55 7.55 0 0 0-1.51 2.81 15.31 15.31 0 0 0-.57 4.59 14.69 14.69 0 0 0 .69 5 6.78 6.78 0 0 0 1.77 2.79 5.1 5.1 0 0 0 2.43 1.17 16 16 0 0 0 2.65.23 11.77 11.77 0 0 0 2.19-.22 17 17 0 0 0 2.4-.62V179c-.87.25-1.71.46-2.51.62a10.3 10.3 0 0 1-2.08.25 12.25 12.25 0 0 1-1.44-.08 2.77 2.77 0 0 1-1.46-.62 4 4 0 0 1-1.16-1.67 9.29 9.29 0 0 1-.5-3.25Zm-10-2.08a13.1 13.1 0 0 1 .31-2.9 5 5 0 0 1 .76-1.77 2.33 2.33 0 0 1 1.14-.89 4.28 4.28 0 0 1 1.47-.24 4 4 0 0 1 1.29.21 2.17 2.17 0 0 1 1.09.82 4.77 4.77 0 0 1 .74 1.75 14.4 14.4 0 0 1 .26 3Zm25.08 7a16.2 16.2 0 0 1-1.88.5 8.91 8.91 0 0 1-1.71.2 6.63 6.63 0 0 1-1.57-.2 2.84 2.84 0 0 1-1.44-.89 5 5 0 0 1-1-2 11.47 11.47 0 0 1-.4-3.38 12.48 12.48 0 0 1 .43-3.67 5 5 0 0 1 1.11-2 3 3 0 0 1 1.52-.85 8 8 0 0 1 1.66-.18 8.4 8.4 0 0 1 1.66.18 12.94 12.94 0 0 1 1.66.45v-2.58a16.36 16.36 0 0 0-1.66-.47 8.65 8.65 0 0 0-1.76-.16 12.26 12.26 0 0 0-2.31.26 5.85 5.85 0 0 0-2.5 1.23 7.29 7.29 0 0 0-2 2.81 12.57 12.57 0 0 0-.82 5 13 13 0 0 0 .77 5 7.05 7.05 0 0 0 1.91 2.73 5.59 5.59 0 0 0 2.43 1.17 12.24 12.24 0 0 0 2.36.25 11 11 0 0 0 3.59-.67Zm17.62 3v-12.8a7.47 7.47 0 0 0-.38-2.56 4.09 4.09 0 0 0-1.06-1.63 3.86 3.86 0 0 0-1.6-.85 7.83 7.83 0 0 0-2.05-.25 6.15 6.15 0 0 0-1.76.26 11.46 11.46 0 0 0-1.59.64 9.26 9.26 0 0 0-1.32.81 12.28 12.28 0 0 0-1 .77v-8.51h-3v24.12h3v-13.5a9.63 9.63 0 0 1 1.08-.65q.6-.31 1.23-.57a10.76 10.76 0 0 1 1.29-.42 5.21 5.21 0 0 1 1.26-.17 9.61 9.61 0 0 1 1.12.07 2.5 2.5 0 0 1 .91.3 1.55 1.55 0 0 1 .6.74 3.31 3.31 0 0 1 .22 1.34v12.9Zm29-.61c.54-.15 1-.29 1.34-.4V168.1h-6.7v2.58h3.69v8.57a19.62 19.62 0 0 1-2.05.44 12.59 12.59 0 0 1-2 .17 5.11 5.11 0 0 1-1.91-.36 3.38 3.38 0 0 1-1.59-1.35 8.37 8.37 0 0 1-1.11-2.85 22.68 22.68 0 0 1-.42-4.86 16.49 16.49 0 0 1 .59-4.86 7.68 7.68 0 0 1 1.51-2.86 4.51 4.51 0 0 1 2.07-1.37 7.71 7.71 0 0 1 2.3-.36 11 11 0 0 1 2.27.26 15.45 15.45 0 0 1 2.65.82v-2.62a10 10 0 0 0-2.46-.82 13.51 13.51 0 0 0-2.46-.25 13.22 13.22 0 0 0-3 .4 7.28 7.28 0 0 0-3.08 1.68 9.64 9.64 0 0 0-2.41 3.65 17 17 0 0 0-1 6.33 24.15 24.15 0 0 0 .68 6.37 9.64 9.64 0 0 0 1.8 3.65 5.1 5.1 0 0 0 2.52 1.66 11.51 11.51 0 0 0 2.94.38 14.21 14.21 0 0 0 2-.15c.69-.1 1.36-.22 2-.35s1.23-.28 1.76-.44m19.17-7.33v-1.78a13.41 13.41 0 0 0-.57-4.29 6.63 6.63 0 0 0-1.47-2.54 4.59 4.59 0 0 0-2-1.22 8.15 8.15 0 0 0-2.28-.32 8.27 8.27 0 0 0-2.47.38 4.85 4.85 0 0 0-2.15 1.43 7.69 7.69 0 0 0-1.51 2.81 15.35 15.35 0 0 0-.56 4.59 14.72 14.72 0 0 0 .68 5 6.69 6.69 0 0 0 1.78 2.79 5 5 0 0 0 2.43 1.17 15.88 15.88 0 0 0 2.64.23 12 12 0 0 0 2.2-.22 16.5 16.5 0 0 0 2.39-.62V179c-.87.25-1.71.46-2.51.62a10.22 10.22 0 0 1-2.08.25 12.49 12.49 0 0 1-1.44-.08 2.8 2.8 0 0 1-1.46-.62 4 4 0 0 1-1.15-1.67 9.29 9.29 0 0 1-.5-3.25Zm-10-2.08a13 13 0 0 1 .32-2.9 5.23 5.23 0 0 1 .75-1.77 2.33 2.33 0 0 1 1.14-.89 4.36 4.36 0 0 1 1.47-.24 4 4 0 0 1 1.29.21 2.13 2.13 0 0 1 1.09.82 4.61 4.61 0 0 1 .74 1.75 13.66 13.66 0 0 1 .27 3Zm22.77-7.87-.77-.14a5 5 0 0 0-.71-.06 3.59 3.59 0 0 0-1.34.23 3.64 3.64 0 0 0-1 .62 4.59 4.59 0 0 0-.79.86 6.32 6.32 0 0 0-.57 1l-.44-2.35h-2.31v17.76h3v-13.57a4.33 4.33 0 0 1 1.19-1 3.19 3.19 0 0 1 1.59-.41 7 7 0 0 1 1.12.08 7.13 7.13 0 0 1 1.06.25Zm26.19 17.89v-12.8a8.78 8.78 0 0 0-.32-2.56 3.9 3.9 0 0 0-.92-1.63 3.4 3.4 0 0 0-1.46-.85 6.6 6.6 0 0 0-1.89-.25 5.54 5.54 0 0 0-1.76.28 8.57 8.57 0 0 0-1.56.7 9.49 9.49 0 0 0-1.25.88c-.37.3-.67.56-.89.78a2.81 2.81 0 0 0-1.47-2 5.63 5.63 0 0 0-2.78-.67 5 5 0 0 0-1.58.25 8.45 8.45 0 0 0-1.44.62 9.09 9.09 0 0 0-1.24.8c-.38.29-.7.56-1 .81l-.67-2.15h-2.27v17.76h3v-13.61a10.46 10.46 0 0 1 2-1.19 5.56 5.56 0 0 1 2.36-.55 5.49 5.49 0 0 1 .94.08 1.63 1.63 0 0 1 .74.34 1.81 1.81 0 0 1 .49.74 3.77 3.77 0 0 1 .18 1.29v12.93h3v-13.64c.29-.2.62-.41 1-.62a9.8 9.8 0 0 1 1.12-.57 9 9 0 0 1 1.17-.4 4.38 4.38 0 0 1 1.09-.15 5.58 5.58 0 0 1 .94.08 1.59 1.59 0 0 1 .73.34 1.63 1.63 0 0 1 .49.74 3.77 3.77 0 0 1 .18 1.29v12.93Zm17.19 0v-12.33a7.89 7.89 0 0 0-.47-3 4.28 4.28 0 0 0-1.27-1.74 4.66 4.66 0 0 0-1.88-.84 11.85 11.85 0 0 0-2.28-.21 14.39 14.39 0 0 0-2.78.27 23.19 23.19 0 0 0-2.55.63v2.55l.81-.22a30.654 30.654 0 0 1 2.71-.57 8.41 8.41 0 0 1 1.34-.12c.52 0 1 0 1.39.07a2.3 2.3 0 0 1 1.06.35 1.89 1.89 0 0 1 .67.82 3.8 3.8 0 0 1 .23 1.44v1.95h-2.91a13.73 13.73 0 0 0-2.35.2 5.91 5.91 0 0 0-2.19.82 4.8 4.8 0 0 0-1.63 1.74 6 6 0 0 0-.63 2.93 7.09 7.09 0 0 0 .5 2.9 4.35 4.35 0 0 0 1.27 1.67 4.29 4.29 0 0 0 1.69.79 8.44 8.44 0 0 0 1.73.2 5 5 0 0 0 1.54-.22 5.38 5.38 0 0 0 1.29-.57 6 6 0 0 0 1-.77 4.87 4.87 0 0 0 .75-.85l.34 2.08Zm-3-4a8.08 8.08 0 0 1-1.82 1.32 4.24 4.24 0 0 1-2 .56 4.86 4.86 0 0 1-1.09-.12 2 2 0 0 1-.9-.47 2.3 2.3 0 0 1-.62-1 5.42 5.42 0 0 1-.24-1.78 4.35 4.35 0 0 1 .32-1.79 2.49 2.49 0 0 1 .9-1.07 3.81 3.81 0 0 1 1.43-.54 10.65 10.65 0 0 1 1.87-.15h2.18Zm22.32 4v-12.8a7.47 7.47 0 0 0-.38-2.56 4.09 4.09 0 0 0-1.06-1.63 3.86 3.86 0 0 0-1.6-.85 7.83 7.83 0 0 0-2.05-.25 6.14 6.14 0 0 0-1.87.28 9.29 9.29 0 0 0-1.66.69 10.59 10.59 0 0 0-1.33.82 7.88 7.88 0 0 0-.87.72l-.67-2.18h-2.24v17.76h3v-13.6a11.13 11.13 0 0 1 2.47-1.31 6.85 6.85 0 0 1 2.39-.47c.34 0 .67 0 1 .05a2.41 2.41 0 0 1 .92.28 1.7 1.7 0 0 1 .67.73 3 3 0 0 1 .25 1.39v12.93Zm14.54-17.76-3.45 14.24-4.5-14.24h-3.62l6.62 17.72-.21.91a9.38 9.38 0 0 1-.52 1.66 4.29 4.29 0 0 1-.6 1 1.69 1.69 0 0 1-.69.5 2.19 2.19 0 0 1-.77.13 7.62 7.62 0 0 1-.87-.06c-.33 0-.66-.1-1-.17s-.76-.15-1.14-.24v2.48l1 .27c.29.07.62.12 1 .17a10.52 10.52 0 0 0 1.12.07 7 7 0 0 0 1.43-.15 3.87 3.87 0 0 0 1.41-.64 4.91 4.91 0 0 0 1.27-1.41 9.89 9.89 0 0 0 1.05-2.49l5.8-19.77Z" style="fill:#999"/></svg>